<svg viewBox="0 0 360 360" xmlns="http://www.w3.org/2000/svg"><g><path d="M217.51 309.715c3.5 2.28 9.5 2.28 21.43 2.28h80.89c11.93 0 17.93 0 21.51-2.36 3.85-2.51 6.28-6.73 6.5-11.3 .2-4.08-2.67-9.03-8.28-18.72 -.2-.33-.39-.67-.59-1.01l-40.53-69.32 -.47-.78c-5.7-9.63-8.57-14.5-12.26-16.38 -4.08-2.08-8.87-2.08-12.94 0 -3.72 1.92-6.72 7-12.65 17.22l-40.38 69.32 -.14.23c-5.92 10.2-8.87 15.3-8.66 19.48 .28 4.57 2.64 8.78 6.5 11.29Z"/><path d="M238.428 126.108c1.57-6.503 1.57-13.37 0-19.87 -1.42-5.96-4.67-11.634-11.08-22.83l-.15-.26 -28.66-50.024c-5.94-10.44-8.94-15.66-12.72-17.58 -4.08-2.08-8.94-2.08-13.01 0 -3.79 1.92-6.79 7.14-12.72 17.58L20.69 278.82c-5.86 10.29-8.79 15.43-8.58 19.65 .28 4.57 2.644 8.71 6.503 11.22 3.57 2.28 9.43 2.28 21.29 2.28H96.36c13.29 0 19.93 0 25.87-1.65 6.5-1.94 12.43-5.37 17.36-10.08 4.52-4.32 7.79-10.04 14.24-21.33l.18-.34 73.22-129.435c6.5-11.363 9.71-17.08 11.14-23.09Z"/><path d="M274 348H86c-3.32 0-6-2.69-6-6 0-3.32 2.68-6 6-6h188c3.31 0 6 2.68 6 6 0 3.31-2.69 6-6 6Z"/></g></svg>