<svg viewBox="0 0 360 360" xmlns="http://www.w3.org/2000/svg"><g><path d="M330.402 162.29c-.29.22-.59.43-.85.69 -10.613 10.6-21.23 21.21-31.84 31.82 -.36.35-.72.69-.98.94 -11.28-11.28-22.49-22.49-33.589-33.59 11.07-11.08 22.28-22.29 33.6-33.601 .12.1.43.35.72.63 10.87 10.87 21.74 21.75 32.61 32.63 .08.08.2.14.3.21 -.01.08-.01.16-.01.25Z"/><path d="M121.71 137.786c-11.3-11.3-22.5-22.5-33.73-33.718 .38-.68 90.6-91.048 91.94-92.068 30.72 30.717 61.42 61.422 92.16 92.154 -.38.67-31.97 32.417-33.63 33.69 -19.43-19.43-38.86-38.86-58.411-58.411 -19.54 19.53-38.97 38.967-58.35 58.34Z"/><path d="M121.595 186.31c19.5 19.5 38.91 38.911 58.41 58.411 2.31-2.11 4.39-4.33 6.55-6.46 2.17-2.15 4.31-4.32 6.47-6.48 2.15-2.16 4.31-4.32 6.47-6.48 2.15-2.16 4.31-4.32 6.47-6.48 2.18-2.19 4.375-4.375 6.56-6.57 2.15-2.16 4.31-4.32 6.47-6.48 2.15-2.16 4.31-4.32 6.47-6.48 2.15-2.16 4.31-4.32 6.47-6.48 2.15-2.16 4.3-4.31 6.58-6.59 11.3 11.28 22.52 22.49 33.64 33.6 -30.79 30.78-61.52 61.51-92.13 92.11 -30.6-30.6-61.321-61.33-92.14-92.14 11.09-11.06 22.32-22.262 33.65-33.553Z"/><path d="M180.075 196.1c-11.32-11.32-22.71-22.708-34.02-34.02 11.29-11.3 22.69-22.7 33.98-33.99l34.01 34.01c-11.31 11.3-22.7 22.69-33.99 33.982Z"/><path d="M30.056 162.023l33.43-33.44 33.47 33.47c-11.11 11.1-22.32 22.32-33.435 33.44 -11.06-11.06-22.28-22.28-33.479-33.48Z"/><path d="M274 348H86c-3.32 0-6-2.69-6-6 0-3.32 2.68-6 6-6h188c3.31 0 6 2.68 6 6 0 3.31-2.69 6-6 6Z"/></g></svg>