<svg viewBox="0 0 360 360" xmlns="http://www.w3.org/2000/svg"><g><path d="M266.41 107.038c-6.15-3.51-14.04-3.51-21.06 0l-49.13 28.95 -33.34 18.42 -48.26 28.95c-6.15 3.5-14.04 3.5-21.06 0l-37.723-22.81c-6.15-3.51-10.53-10.53-10.53-18.43V98.24c0-7.02 3.5-14.04 10.52-18.43L93.55 57.87c6.14-3.51 14.03-3.51 21.05 0l37.72 22.8c6.14 3.5 10.52 10.52 10.52 18.42v28.95l33.33-19.3V78.91c0-7.02-3.51-14.04-10.53-18.43l-70.19-41.24c-6.15-3.51-14.04-3.51-21.06 0L22.45 61.35c-7.02 3.5-10.53 10.52-10.53 17.54v82.465c0 7.01 3.5 14.03 10.52 18.42L93.5 221.01c6.14 3.5 14.03 3.5 21.05 0l48.25-28.08 33.33-19.3 48.25-28.08c6.14-3.51 14.03-3.51 21.05 0l37.72 21.93c6.14 3.5 10.52 10.52 10.52 18.42v43.86c0 7.01-3.51 14.03-10.53 18.42l-36.85 21.93c-6.15 3.5-14.04 3.5-21.06 0l-37.73-21.94c-6.15-3.51-10.53-10.53-10.53-18.43v-28.08l-33.34 19.3v28.95c0 7.01 3.5 14.03 10.52 18.42l71.06 41.23c6.14 3.5 14.03 3.5 21.05 0l71.06-41.24c6.14-3.51 10.52-10.53 10.52-18.43v-83.35c0-7.02-3.51-14.04-10.53-18.43Z"/><path d="M274 348H86c-3.32 0-6-2.69-6-6 0-3.32 2.68-6 6-6h188c3.31 0 6 2.68 6 6 0 3.31-2.69 6-6 6Z"/></g></svg>